<svg xmlns="http://www.w3.org/2000/svg" viewBox="0 0 99.12 72.73"><title>new-topic-folder-icon</title><path d="M93.28,12.64H48.84a2.82,2.82,0,0,1-2.23-1.1L39,1.66A2.81,2.81,0,0,0,36.8.56H14.27A5.28,5.28,0,0,0,9,5.84V58.46a5.27,5.27,0,0,0,5.28,5.28H81.71a8.43,8.43,0,1,0,16.85,0V17.92A5.27,5.27,0,0,0,93.28,12.64Z" fill="#fff" stroke="#000" stroke-miterlimit="10" stroke-width="1.12"/><path d="M81.71,63.74V23.81a5.28,5.28,0,0,0-5.28-5.28h-36a2.78,2.78,0,0,1-2.23-1.1L30.61,7.56a2.79,2.79,0,0,0-2.23-1.1H5.84A5.28,5.28,0,0,0,.56,11.74V66.89a5.29,5.29,0,0,0,5.28,5.28h84.3A8.44,8.44,0,0,1,81.71,63.74Z" fill="#fff" stroke="#000" stroke-miterlimit="10" stroke-width="1.12"/><line x1="43.24" y1="35.1" x2="43.24" y2="55.32" fill="none" stroke="#000" stroke-miterlimit="10" stroke-width="1.12"/><line x1="53.35" y1="45.21" x2="33.13" y2="45.21" fill="none" stroke="#000" stroke-miterlimit="10" stroke-width="1.12"/></svg>