<svg xmlns="http://www.w3.org/2000/svg" viewBox="0 0 71.52 94.99"><title>new-post-paper-icon</title><path d="M17.32,1.66,1.66,17.32A3.72,3.72,0,0,0,.56,20V92.19a2.23,2.23,0,0,0,2.23,2.24H68.73A2.23,2.23,0,0,0,71,92.19V2.79A2.23,2.23,0,0,0,68.73.56H20A3.72,3.72,0,0,0,17.32,1.66Z" fill="#fff" stroke="#000" stroke-miterlimit="10" stroke-width="1.12"/><line x1="35.76" y1="37.44" x2="35.76" y2="57.55" fill="none" stroke="#000" stroke-miterlimit="10" stroke-width="1.12"/><line x1="45.82" y1="47.49" x2="25.7" y2="47.49" fill="none" stroke="#000" stroke-miterlimit="10" stroke-width="1.12"/><path d="M18.72,1V16.9a2.24,2.24,0,0,1-2.24,2.24H.56" fill="none" stroke="#000" stroke-miterlimit="10" stroke-width="1.12"/></svg>